<svg width="60" height="60" viewBox="0 0 60 60" fill="none" xmlns="http://www.w3.org/2000/svg">
<g clip-path="url(#clip0)">
<path d="M48.5245 53.9537H18.2045C16.4692 53.9537 15.0626 52.547 15.0626 50.8118V3.14188C15.0626 1.40672 16.4693 0 18.2046 0H48.5246C50.2598 0 51.6665 1.40672 51.6665 3.14188V50.8117C51.6665 52.547 50.2598 53.9537 48.5245 53.9537Z" fill="#BED9FD"/>
<path d="M48.5244 0H44.8857C46.6209 0 48.0276 1.40672 48.0276 3.14188V50.8117C48.0276 52.5469 46.6209 53.9536 44.8857 53.9536H48.5244C50.2596 53.9536 51.6663 52.5469 51.6663 50.8117V3.14188C51.6664 1.40672 50.2597 0 48.5244 0V0Z" fill="#BED9FD"/>
<path d="M41.7955 60H11.4755C9.74033 60 8.33362 58.5933 8.33362 56.8581V9.18827C8.33362 7.4531 9.74033 6.04639 11.4755 6.04639H41.7955C43.5308 6.04639 44.9373 7.4531 44.9373 9.18827V56.8581C44.9373 58.5933 43.5308 60 41.7955 60Z" fill="#E9F3FF"/>
<path d="M41.7954 6.04639H38.1567C39.892 6.04639 41.2986 7.4531 41.2986 9.18827V56.8582C41.2986 58.5934 39.8919 60.0001 38.1567 60.0001H41.7954C43.5307 60.0001 44.9373 58.5934 44.9373 56.8582V9.18827C44.9373 7.4531 43.5307 6.04639 41.7954 6.04639Z" fill="#E9F3FF"/>
<path d="M16.0224 18.6702C16.0182 18.6702 16.0139 18.6702 16.0097 18.67C15.7443 18.6663 15.4937 18.5468 15.3238 18.3431L13.882 16.6142C13.5602 16.2284 13.6121 15.6548 13.998 15.333C14.3837 15.0112 14.9574 15.0631 15.2791 15.4491L16.0418 16.3636L18.2824 13.8244C18.6146 13.4477 19.1895 13.4118 19.5664 13.7442C19.9431 14.0766 19.979 14.6515 19.6465 15.0282L16.7044 18.3625C16.5317 18.5582 16.2833 18.6702 16.0224 18.6702Z" fill="#007AFF"/>
<path d="M16.0224 27.2941C16.0182 27.2941 16.0139 27.2941 16.0097 27.2941C15.7443 27.2903 15.4937 27.1708 15.3238 26.9671L13.882 25.2382C13.5602 24.8524 13.6121 24.2788 13.998 23.957C14.3837 23.6353 14.9574 23.6872 15.2791 24.0731L16.0418 24.9876L18.2824 22.4484C18.6146 22.0717 19.1895 22.0358 19.5664 22.3683C19.9431 22.7006 19.979 23.2755 19.6465 23.6522L16.7044 26.9865C16.5317 27.1821 16.2833 27.2941 16.0224 27.2941Z" fill="#007AFF"/>
<path d="M17.5995 33.3576L18.5551 32.2747C18.8875 31.898 18.8516 31.3231 18.4749 30.9908C18.098 30.6583 17.5233 30.6943 17.1909 31.071L16.3863 31.9828L15.5816 31.071C15.2493 30.6943 14.6744 30.6584 14.2977 30.9908C13.921 31.3231 13.885 31.898 14.2175 32.2747L15.1731 33.3576L14.2488 34.4052C13.9163 34.7819 13.9522 35.3568 14.329 35.6892C14.5019 35.8418 14.7166 35.9167 14.9304 35.9167C15.1824 35.9167 15.4332 35.8126 15.6129 35.6089L16.3863 34.7324L17.1596 35.6089C17.3394 35.8126 17.5901 35.9167 17.842 35.9167C18.0558 35.9167 18.2706 35.8418 18.4435 35.6892C18.8202 35.3568 18.8561 34.7819 18.5236 34.4052L17.5995 33.3576Z" fill="#FF6167"/>
<path d="M16.0224 44.5399C16.0182 44.5399 16.0139 44.5399 16.0097 44.5397C15.7443 44.536 15.4937 44.4165 15.3238 44.2128L13.882 42.4839C13.5602 42.0981 13.6121 41.5244 13.998 41.2027C14.3838 40.8811 14.9574 40.9328 15.2791 41.3187L16.0418 42.2332L18.2824 39.694C18.6146 39.3174 19.1895 39.2814 19.5664 39.6138C19.9431 39.9462 19.979 40.5211 19.6465 40.8978L16.7044 44.232C16.5317 44.4279 16.2833 44.5399 16.0224 44.5399Z" fill="#007AFF"/>
<path d="M38.8924 15.8877H23.3755C22.8731 15.8877 22.4658 15.4804 22.4658 14.978C22.4658 14.4757 22.8731 14.0684 23.3755 14.0684H38.8926C39.3949 14.0684 39.8022 14.4757 39.8022 14.978C39.8022 15.4804 39.3949 15.8877 38.8924 15.8877Z" fill="#C8C3CA"/>
<path d="M25.4402 19.2456H23.3755C22.8731 19.2456 22.4658 18.8383 22.4658 18.3359C22.4658 17.8336 22.8731 17.4263 23.3755 17.4263H25.4402C25.9426 17.4263 26.3499 17.8336 26.3499 18.3359C26.3499 18.8383 25.9426 19.2456 25.4402 19.2456Z" fill="#C8C3CA"/>
<path d="M32.1663 19.2456H30.1016C29.5991 19.2456 29.1919 18.8383 29.1919 18.3359C29.1919 17.8336 29.5991 17.4263 30.1016 17.4263H32.1663C32.6688 17.4263 33.076 17.8336 33.076 18.3359C33.076 18.8383 32.6688 19.2456 32.1663 19.2456Z" fill="#C8C3CA"/>
<path d="M38.8925 19.2456H36.8278C36.3253 19.2456 35.9181 18.8383 35.9181 18.3359C35.9181 17.8336 36.3253 17.4263 36.8278 17.4263H38.8925C39.3949 17.4263 39.8021 17.8336 39.8021 18.3359C39.8021 18.8383 39.395 19.2456 38.8925 19.2456Z" fill="#E9F3FF"/>
<path d="M38.8924 24.5112H23.3755C22.8731 24.5112 22.4658 24.104 22.4658 23.6016C22.4658 23.0992 22.8731 22.6919 23.3755 22.6919H38.8926C39.3949 22.6919 39.8022 23.0992 39.8022 23.6016C39.8021 24.104 39.3949 24.5112 38.8924 24.5112Z" fill="#E9F3FF"/>
<path d="M25.4402 27.8687H23.3755C22.8731 27.8687 22.4658 27.4614 22.4658 26.959C22.4658 26.4566 22.8731 26.0493 23.3755 26.0493H25.4402C25.9426 26.0493 26.3499 26.4566 26.3499 26.959C26.3499 27.4614 25.9426 27.8687 25.4402 27.8687Z" fill="#FF6167"/>
<path d="M32.1663 27.8687H30.1016C29.5991 27.8687 29.1919 27.4614 29.1919 26.959C29.1919 26.4566 29.5991 26.0493 30.1016 26.0493H32.1663C32.6688 26.0493 33.076 26.4566 33.076 26.959C33.076 27.4614 32.6688 27.8687 32.1663 27.8687Z" fill="#FF6167"/>
<path d="M38.8925 27.8687H36.8278C36.3253 27.8687 35.9181 27.4614 35.9181 26.959C35.9181 26.4566 36.3253 26.0493 36.8278 26.0493H38.8925C39.3949 26.0493 39.8021 26.4566 39.8021 26.959C39.8021 27.4614 39.395 27.8687 38.8925 27.8687Z" fill="#FFE589"/>
<path d="M38.8924 33.1338H23.3755C22.8731 33.1338 22.4658 32.7265 22.4658 32.2241C22.4658 31.7217 22.8731 31.3145 23.3755 31.3145H38.8926C39.3949 31.3145 39.8022 31.7217 39.8022 32.2241C39.8021 32.7265 39.3949 33.1338 38.8924 33.1338Z" fill="#FFE589"/>
<path d="M25.4402 36.4922H23.3755C22.8731 36.4922 22.4658 36.0849 22.4658 35.5825C22.4658 35.0801 22.8731 34.6729 23.3755 34.6729H25.4402C25.9426 34.6729 26.3499 35.0801 26.3499 35.5825C26.3499 36.0849 25.9426 36.4922 25.4402 36.4922Z" fill="#C8C3CA"/>
<path d="M32.1663 36.4922H30.1016C29.5991 36.4922 29.1919 36.0849 29.1919 35.5825C29.1919 35.0801 29.5991 34.6729 30.1016 34.6729H32.1663C32.6688 34.6729 33.076 35.0801 33.076 35.5825C33.076 36.0849 32.6688 36.4922 32.1663 36.4922Z" fill="#C8C3CA"/>
<path d="M38.8925 36.4922H36.8278C36.3253 36.4922 35.9181 36.0849 35.9181 35.5825C35.9181 35.0801 36.3253 34.6729 36.8278 34.6729H38.8925C39.3949 34.6729 39.8021 35.0801 39.8021 35.5825C39.8021 36.0849 39.395 36.4922 38.8925 36.4922Z" fill="#C8C3CA"/>
<path d="M38.8924 41.7573H23.3755C22.8731 41.7573 22.4658 41.35 22.4658 40.8477C22.4658 40.3453 22.8731 39.938 23.3755 39.938H38.8926C39.3949 39.938 39.8022 40.3453 39.8022 40.8477C39.8022 41.35 39.3949 41.7573 38.8924 41.7573Z" fill="#C8C3CA"/>
<path d="M25.4402 45.1148H23.3755C22.8731 45.1148 22.4658 44.7075 22.4658 44.2051C22.4658 43.7027 22.8731 43.2954 23.3755 43.2954H25.4402C25.9426 43.2954 26.3499 43.7027 26.3499 44.2051C26.3499 44.7075 25.9426 45.1148 25.4402 45.1148Z" fill="#C8C3CA"/>
<path d="M32.1663 45.1148H30.1016C29.5991 45.1148 29.1919 44.7075 29.1919 44.2051C29.1919 43.7027 29.5991 43.2954 30.1016 43.2954H32.1663C32.6688 43.2954 33.076 43.7027 33.076 44.2051C33.076 44.7075 32.6688 45.1148 32.1663 45.1148Z" fill="#C8C3CA"/>
<path d="M38.8925 45.1148H36.8278C36.3253 45.1148 35.9181 44.7075 35.9181 44.2051C35.9181 43.7027 36.3253 43.2954 36.8278 43.2954H38.8925C39.3949 43.2954 39.8021 43.7027 39.8021 44.2051C39.8021 44.7075 39.395 45.1148 38.8925 45.1148Z" fill="#C8C3CA"/>
<path d="M38.8924 50.3804H23.3755C22.8731 50.3804 22.4658 49.9731 22.4658 49.4707C22.4658 48.9683 22.8731 48.561 23.3755 48.561H38.8926C39.3949 48.561 39.8022 48.9683 39.8022 49.4707C39.8021 49.9731 39.3949 50.3804 38.8924 50.3804Z" fill="#C8C3CA"/>
<path d="M25.4402 53.7383H23.3755C22.8731 53.7383 22.4658 53.331 22.4658 52.8286C22.4658 52.3262 22.8731 51.9189 23.3755 51.9189H25.4402C25.9426 51.9189 26.3499 52.3262 26.3499 52.8286C26.3499 53.331 25.9426 53.7383 25.4402 53.7383Z" fill="#C8C3CA"/>
<path d="M32.1663 53.7383H30.1016C29.5991 53.7383 29.1919 53.331 29.1919 52.8286C29.1919 52.3262 29.5991 51.9189 30.1016 51.9189H32.1663C32.6688 51.9189 33.076 52.3262 33.076 52.8286C33.076 53.331 32.6688 53.7383 32.1663 53.7383Z" fill="#C8C3CA"/>
<path d="M38.8925 53.7383H36.8278C36.3253 53.7383 35.9181 53.331 35.9181 52.8286C35.9181 52.3262 36.3253 51.9189 36.8278 51.9189H38.8925C39.3949 51.9189 39.8021 52.3262 39.8021 52.8286C39.8021 53.331 39.395 53.7383 38.8925 53.7383Z" fill="#C8C3CA"/>
<path d="M16.0224 53.1634C16.0182 53.1634 16.0139 53.1634 16.0097 53.1633C15.7443 53.1595 15.4937 53.04 15.3238 52.8363L13.882 51.1074C13.5602 50.7216 13.6121 50.148 13.998 49.8262C14.3837 49.5044 14.9574 49.5563 15.2791 49.9423L16.0418 50.8568L18.2824 48.3176C18.6146 47.9409 19.1895 47.9049 19.5664 48.2374C19.9431 48.5698 19.979 49.1447 19.6465 49.5214L16.7044 52.8558C16.5317 53.0514 16.2833 53.1634 16.0224 53.1634Z" fill="#007AFF"/>
</g>
<defs>
<clipPath id="clip0">
<rect width="60" height="60" fill="white"/>
</clipPath>
</defs>
</svg>
