<svg width="60" height="60" viewBox="0 0 60 60" fill="none" xmlns="http://www.w3.org/2000/svg">
<g clip-path="url(#clip0)">
<path d="M46.6661 7.57129L25.4163 0.0713665C25.1477 -0.0237888 24.8523 -0.0237888 24.5838 0.0713665L3.33407 7.57129C2.83486 7.74824 2.50029 8.22074 2.50029 8.75054V23.7504C2.50029 43.1618 5.37874 50.2565 24.4373 59.8658C24.6143 59.9549 24.8072 60.0001 25.0001 60.0001C25.193 60.0001 25.3858 59.955 25.5628 59.8658C44.6214 50.2565 47.4998 43.1618 47.4998 23.7504V8.75054C47.4998 8.22074 47.1654 7.74836 46.6661 7.57129Z" fill="white"/>
<path d="M25.0001 2.57617L5.00021 9.63548V23.7503C5.00021 26.0124 5.03748 28.0818 5.13088 29.9997H25.0001V2.57617Z" fill="#007AFF"/>
<path d="M44.8692 29.9997C44.9626 28.0818 44.9999 26.0124 44.9999 23.7503V9.63548L25.0001 2.57617V29.9997H44.8692Z" fill="#F7E07F"/>
<path d="M25.0001 29.9995V57.3485C40.4844 49.4541 44.195 43.8445 44.8692 29.9995H25.0001Z" fill="#007AFF"/>
<path d="M5.13089 29.9995C5.80518 43.8445 9.51577 49.4541 25.0001 57.3485V29.9995H5.13089Z" fill="#F7E07F"/>
<path opacity="0.1" d="M25.0001 52.4996C7.37078 43.5116 5.00021 39.9942 5.00021 21.4019V23.7505C5.00021 42.3428 7.37078 48.3608 25.0001 57.3488C42.6293 48.3608 44.9999 42.3428 44.9999 23.7505V21.4019C44.9999 39.9942 42.6292 43.5116 25.0001 52.4996Z" fill="#1B1D1A"/>
<path d="M43.7499 59.9997C51.3437 59.9997 57.4997 53.8436 57.4997 46.2498C57.4997 38.656 51.3437 32.5 43.7499 32.5C36.1561 32.5 30.0001 38.656 30.0001 46.2498C30.0001 53.8436 36.1561 59.9997 43.7499 59.9997Z" fill="white"/>
<path d="M43.7499 57.4998C49.963 57.4998 54.9998 52.463 54.9998 46.2499C54.9998 40.0367 49.963 35 43.7499 35C37.5367 35 32.5 40.0367 32.5 46.2499C32.5 52.463 37.5367 57.4998 43.7499 57.4998Z" fill="#007AFF"/>
<path d="M47.8661 47.8657L44.9999 50.7318V38.7495C44.9999 38.0586 44.4408 37.4995 43.7499 37.4995C43.059 37.4995 42.4999 38.0586 42.4999 38.7495V50.7318L39.6337 47.8657C39.1454 47.3774 38.3544 47.3774 37.8662 47.8657C37.3779 48.354 37.3779 49.145 37.8662 49.6332L42.8662 54.6332C43.1103 54.8773 43.4302 54.9994 43.75 54.9994C44.0698 54.9994 44.3896 54.8773 44.6338 54.6332L49.6338 49.6332C50.1221 49.1449 50.1221 48.3539 49.6338 47.8657C49.1455 47.3775 48.3544 47.3775 47.8661 47.8657Z" fill="white"/>
<path d="M47.1492 32.9424C47.4018 30.2021 47.4999 27.1766 47.4999 23.7504V8.75054C47.4999 8.22074 47.1654 7.74836 46.6661 7.57129L25.4163 0.0713665C25.1477 -0.0237888 24.8523 -0.0237888 24.5838 0.0713665L3.33407 7.57129C2.83486 7.74824 2.50029 8.22074 2.50029 8.75054V23.7504C2.50029 43.1618 5.37874 50.2565 24.4373 59.8658C24.6143 59.9549 24.8072 60.0001 25.0001 60.0001C25.193 60.0001 25.3858 59.955 25.5628 59.8658C28.6181 58.3253 31.217 56.8499 33.4955 55.3777C36.0156 58.2056 39.6729 59.9995 43.7499 59.9995C51.3316 59.9995 57.4997 53.8314 57.4997 46.2497C57.4997 39.8429 53.0891 34.4615 47.1492 32.9424Z" fill="url(#paint0_linear)"/>
</g>
<defs>
<linearGradient id="paint0_linear" x1="-1.26469" y1="16.5504" x2="59.5474" y2="44.9076" gradientUnits="userSpaceOnUse">
<stop stop-color="white" stop-opacity="0.2"/>
<stop offset="1" stop-color="white" stop-opacity="0"/>
</linearGradient>
<clipPath id="clip0">
<rect width="60" height="60" fill="white"/>
</clipPath>
</defs>
</svg>
