<svg width="60" height="60" viewBox="0 0 60 60" fill="none" xmlns="http://www.w3.org/2000/svg">
<g clip-path="url(#clip0)">
<path d="M56.3783 46.5343H3.62168C1.62152 46.5343 0 44.9129 0 42.9126V8.81797C0 6.8177 1.62152 5.19629 3.62168 5.19629H56.3782C58.3785 5.19629 59.9999 6.81781 59.9999 8.81797V42.9126C60 44.9129 58.3785 46.5343 56.3783 46.5343Z" fill="#73B5FD"/>
<path d="M56.3784 5.19629H52.7567C54.757 5.19629 56.3784 6.81781 56.3784 8.81797V42.9126C56.3784 44.9129 54.7569 46.5343 52.7567 46.5343H56.3784C58.3787 46.5343 60.0001 44.9128 60.0001 42.9126V8.81797C60.0001 6.81781 58.3785 5.19629 56.3784 5.19629Z" fill="#73B5FD"/>
<path d="M3.62183 40.6192V9.30129C3.62183 9.03457 3.83804 8.81836 4.10476 8.81836H55.8955C56.1623 8.81836 56.3785 9.03457 56.3785 9.30129V40.6192C56.3785 40.8859 56.1623 41.1021 55.8955 41.1021H4.10476C3.83804 41.1021 3.62183 40.8859 3.62183 40.6192Z" fill="#E9F3FF"/>
<path d="M55.8955 8.81836H52.2738C52.5405 8.81836 52.7567 9.03457 52.7567 9.30129V40.6192C52.7567 40.8859 52.5405 41.1021 52.2738 41.1021H55.8955C56.1622 41.1021 56.3784 40.8859 56.3784 40.6192V9.30129C56.3784 9.03457 56.1622 8.81836 55.8955 8.81836Z" fill="#E9F3FF"/>
<path d="M35.9811 59.9996H24.019L25.8299 46.5342H34.1702L35.9811 59.9996Z" fill="#E9F3FF"/>
<path d="M34.1699 46.5342H30.5482L32.3591 59.9996H35.9808L34.1699 46.5342Z" fill="#E9F3FF"/>
<path d="M37.8345 54.1779L39.1096 58.7757C39.2802 59.3911 38.8174 59.9996 38.1789 59.9996H21.8212C21.1827 59.9996 20.7199 59.3911 20.8905 58.7757L22.1657 54.1779C22.2817 53.7597 22.6623 53.4702 23.0964 53.4702H36.9039C37.3378 53.4702 37.7186 53.7598 37.8345 54.1779Z" fill="#E9F3FF"/>
<path d="M39.1097 58.7757L37.8346 54.1779C37.7186 53.7597 37.338 53.4702 36.9039 53.4702H33.2822C33.7162 53.4702 34.0969 53.7597 34.2129 54.1779L35.488 58.7757C35.6587 59.3911 35.1959 59.9996 34.5573 59.9996H38.179C38.8176 59.9996 39.2804 59.3911 39.1097 58.7757Z" fill="#E9F3FF"/>
<path d="M10.8062 7.24365H49.1941V41.1022H10.8062V7.24365Z" fill="#E9F3FF"/>
<path d="M47.7452 0H44.1235C44.9236 0 45.5722 0.648633 45.5722 1.44867V41.102H49.1939V1.44867C49.1939 0.648633 48.5454 0 47.7452 0V0Z" fill="#EFEAF4"/>
<path d="M47.7453 0H12.2548C11.4548 0 10.8062 0.648633 10.8062 1.44867V7.24348H49.1941V1.44867C49.194 0.648633 48.5454 0 47.7453 0V0Z" fill="#73B5FD"/>
<path d="M47.7452 0H44.1235C44.9236 0 45.5722 0.648633 45.5722 1.44867V7.24348H49.1939V1.44867C49.1939 0.648633 48.5454 0 47.7452 0V0Z" fill="#E9F3FF"/>
<path d="M14.4277 4.5266C14.9278 4.5266 15.3331 4.12124 15.3331 3.62121C15.3331 3.12118 14.9278 2.71582 14.4277 2.71582C13.9277 2.71582 13.5223 3.12118 13.5223 3.62121C13.5223 4.12124 13.9277 4.5266 14.4277 4.5266Z" fill="#E9F3FF"/>
<path d="M18.0496 4.5266C18.5496 4.5266 18.9549 4.12124 18.9549 3.62121C18.9549 3.12118 18.5496 2.71582 18.0496 2.71582C17.5495 2.71582 17.1442 3.12118 17.1442 3.62121C17.1442 4.12124 17.5495 4.5266 18.0496 4.5266Z" fill="#FF6167"/>
<path d="M21.6711 4.5266C22.1712 4.5266 22.5765 4.12124 22.5765 3.62121C22.5765 3.12118 22.1712 2.71582 21.6711 2.71582C21.1711 2.71582 20.7657 3.12118 20.7657 3.62121C20.7657 4.12124 21.1711 4.5266 21.6711 4.5266Z" fill="#FF6167"/>
<path d="M40.2736 41.1021V34.8409C40.2736 32.778 39.0113 30.9251 37.0915 30.1702L34.6453 29.2082C33.6782 28.8278 33.0422 27.8944 33.0422 26.8552V24.856H26.9578V26.8552C26.9578 27.8944 26.3219 28.8279 25.3547 29.2082L22.9085 30.1702C20.9888 30.9252 19.7264 32.7781 19.7264 34.8409V41.1021" fill="#F7E07F"/>
<path d="M37.0914 30.1702L34.6452 29.2082C33.6781 28.8278 33.0421 27.8944 33.0421 26.8552V24.856H29.4204V28.6661C29.4204 29.7053 30.0564 30.6388 31.0235 31.0191L33.4697 31.9811C35.3896 32.7361 36.6518 34.589 36.6518 36.6519V41.1023H40.2735V34.841C40.2735 32.7781 39.0111 30.9252 37.0914 30.1702Z" fill="#F7E07F"/>
<path d="M33.9355 41.102V37.6925C33.9355 37.1925 34.3409 36.7871 34.8409 36.7871C35.3411 36.7871 35.7463 37.1925 35.7463 37.6925V41.102H33.9355Z" fill="#FF6167"/>
<path d="M24.2538 41.102V37.6925C24.2538 37.1925 24.6591 36.7871 25.1592 36.7871C25.6592 36.7871 26.0646 37.1925 26.0646 37.6925V41.102H24.2538Z" fill="#FF6167"/>
<path d="M30 31.0814C31.7352 31.0814 33.285 30.2884 34.3072 29.0451C33.5327 28.5986 31.2313 27.7678 31.2313 26.8552V24.856H26.9578V26.8552C26.9578 27.7678 26.4671 28.5986 25.6926 29.0451C26.715 30.2883 28.2648 31.0814 30 31.0814Z" fill="#F2CCBC"/>
<path d="M30.9719 30.9965C32.308 30.7614 33.4803 30.0508 34.3071 29.0451C33.5905 28.6283 33.0389 27.8318 33.042 26.8552V24.856H29.4203V28.6661C29.4203 29.6863 30.0342 30.6034 30.9719 30.9965Z" fill="#ECAD9A"/>
<path d="M30.135 25.6584C29.9436 25.6584 29.6198 26.2715 29.4334 26.2526C26.6381 25.9687 24.4568 23.608 24.4568 20.7377V18.3329L26.2677 13.9769C26.2677 12.3752 27.5661 12.8876 29.168 12.8876H32.6434C34.2451 12.8876 33.7328 12.3752 33.7328 13.9769L35.5437 18.3329V20.7377C35.5437 22.6758 34.5491 24.3815 33.0427 25.3725C32.1693 25.9469 30.135 25.6584 30.135 25.6584Z" fill="#F2CCBC"/>
<path d="M33.7326 13.9769C33.7326 12.3752 34.245 12.8876 32.6432 12.8876L31.9217 16.522V20.7377C31.9468 21.0308 32.0567 22.6481 30.87 23.986C29.3643 25.6833 27.1321 25.3974 26.9579 25.372C27.3896 25.6514 28.1386 26.0573 29.148 26.2153C29.148 26.2153 29.5834 26.281 30.0001 26.281C33.0616 26.281 35.5435 23.7991 35.5435 20.7376V18.3328L33.7326 13.9769Z" fill="#ECAD9A"/>
<path d="M35.5437 13.9769C35.5437 12.3752 34.2451 11.0767 32.6434 11.0767H27.3571C25.7553 11.0767 24.4568 12.3751 24.4568 13.9769V18.3329C25.4789 18.4882 27.3443 18.6221 29.445 17.8708C30.3845 17.5349 31.1467 17.1021 31.7313 16.7012C31.8423 16.6251 31.9944 16.6535 32.0679 16.7662C32.291 17.1087 32.7343 17.657 33.4903 18.022C34.4024 18.4625 35.2366 18.3788 35.5436 18.3328V13.9769H35.5437Z" fill="#CF9772"/>
<path d="M32.6433 11.0767H29.0216C30.6233 11.0767 31.9219 12.3751 31.9219 13.9769V16.6653C31.9797 16.6786 32.0329 16.7124 32.0679 16.7662C32.291 17.1087 32.7343 17.657 33.4903 18.022C34.4024 18.4625 35.2366 18.3788 35.5436 18.3328V13.9768C35.5436 12.3751 34.245 11.0767 32.6433 11.0767Z" fill="#C88556"/>
<path d="M42.32 3.62207H57.1861C58.7401 3.62207 59.9999 4.88184 59.9999 6.43586V12.8499C59.9999 14.4039 58.7401 15.6637 57.1861 15.6637H48.84C48.6658 15.6637 48.4988 15.7328 48.3757 15.856L45.66 18.5717C45.4236 18.808 45.0195 18.6406 45.0195 18.3064V16.3202C45.0195 15.9576 44.7256 15.6636 44.3629 15.6636H42.3199C40.7659 15.6636 39.5061 14.4038 39.5061 12.8498V6.43586C39.5062 4.88184 40.766 3.62207 42.32 3.62207Z" fill="#F7E07F"/>
<path d="M57.1863 3.62207H53.5646C55.1186 3.62207 56.3784 4.88184 56.3784 6.43586V12.8499C56.3784 14.4039 55.1186 15.6637 53.5646 15.6637H57.1863C58.7403 15.6637 60 14.4039 60 12.8499V6.43586C60 4.88184 58.7403 3.62207 57.1863 3.62207Z" fill="#E9F3FF"/>
<path d="M55.9032 8.73705H43.6028C43.1026 8.73705 42.6974 8.3317 42.6974 7.83166C42.6974 7.33162 43.1027 6.92627 43.6028 6.92627H55.9032C56.4034 6.92627 56.8086 7.33162 56.8086 7.83166C56.8086 8.3317 56.4034 8.73705 55.9032 8.73705Z" fill="#F9F6F6"/>
<path d="M55.9032 12.3591H43.6028C43.1026 12.3591 42.6974 11.9538 42.6974 11.4537C42.6974 10.9537 43.1027 10.5483 43.6028 10.5483H55.9032C56.4034 10.5483 56.8086 10.9537 56.8086 11.4537C56.8086 11.9538 56.4034 12.3591 55.9032 12.3591Z" fill="#F9F6F6"/>
</g>
<defs>
<clipPath id="clip0">
<rect width="60" height="60" fill="white"/>
</clipPath>
</defs>
</svg>
