<svg width="60" height="60" viewBox="0 0 60 60" fill="none" xmlns="http://www.w3.org/2000/svg">
<g clip-path="url(#clip0)">
<path d="M35.1309 53.4994C35.1309 54.4995 34.3202 55.3103 33.32 55.3103H1.8109C0.810703 55.3103 0 54.4996 0 53.4994V11.0043L35.1309 9.19336V53.4994Z" fill="#73B5FD"/>
<path d="M38.3903 11.0044V53.4995C38.3903 54.4991 37.579 55.3104 36.5794 55.3104H32.9576C33.9572 55.3104 34.7685 54.4991 34.7685 53.4995V51.0847L25.0502 35.2095L34.7685 11.0044H38.3903Z" fill="#9FCCFE"/>
<path d="M35.1309 11.0041H34.7687L18.4709 13.7974L3.6218 11.0041H0V6.17516C0 5.17508 0.810703 4.36426 1.8109 4.36426H33.32C34.3201 4.36426 35.1309 5.17496 35.1309 6.17516V11.0041Z" fill="#9FCCFE"/>
<path d="M38.3905 6.17516V11.0041H34.7687V6.17516C34.7687 5.17437 33.9574 4.36426 32.9578 4.36426H36.5796C37.5792 4.36426 38.3905 5.17426 38.3905 6.17516Z" fill="#9FCCFE"/>
<path d="M34.7689 51.0846C34.7689 51.418 34.4987 51.6882 34.1653 51.6882H4.22552C3.89212 51.6882 3.62189 51.418 3.62189 51.0846V11.0039H34.7689V51.0846Z" fill="#E9F3FF"/>
<path d="M24.9298 24.5254H7.8471C7.5137 24.5254 7.24347 24.2552 7.24347 23.9218V15.2296C7.24347 14.8962 7.5137 14.626 7.8471 14.626H30.5434C30.8768 14.626 31.147 14.8962 31.147 15.2296V19.455L24.9298 24.5254Z" fill="#E9F3FF"/>
<path d="M17.5655 36.2961H7.24353C6.74349 36.2961 6.33813 35.8908 6.33813 35.3907C6.33813 34.8907 6.74349 34.4854 7.24353 34.4854H17.5655C18.0656 34.4854 18.4709 34.8907 18.4709 35.3907C18.4709 35.8908 18.0656 36.2961 17.5655 36.2961Z" fill="#E9F3FF"/>
<path d="M17.5655 32.6746H7.24353C6.74349 32.6746 6.33813 32.2692 6.33813 31.7692C6.33813 31.269 6.74349 30.8638 7.24353 30.8638H17.5655C18.0656 30.8638 18.4709 31.2691 18.4709 31.7692C18.4709 32.2692 18.0656 32.6746 17.5655 32.6746Z" fill="#E9F3FF"/>
<path d="M18.7728 29.0525H7.24353C6.74349 29.0525 6.33813 28.6471 6.33813 28.1471C6.33813 27.647 6.74349 27.2417 7.24353 27.2417H18.7728C19.2728 27.2417 19.6782 27.647 19.6782 28.1471C19.6782 28.6471 19.2728 29.0525 18.7728 29.0525Z" fill="#007AFF"/>
<path d="M7.24353 48.9723C6.74349 48.9723 6.33813 48.5669 6.33813 48.0669V46.256C6.33813 45.7558 6.74349 45.3506 7.24353 45.3506C7.74356 45.3506 8.14892 45.7559 8.14892 46.256V48.0669C8.14892 48.5669 7.74356 48.9723 7.24353 48.9723Z" fill="#BDE4FF"/>
<path d="M10.8651 48.9721C10.3651 48.9721 9.95972 48.5668 9.95972 48.0667V43.8414C9.95972 43.3413 10.3651 42.936 10.8651 42.936C11.3651 42.936 11.7705 43.3414 11.7705 43.8414V48.0667C11.7705 48.5668 11.3651 48.9721 10.8651 48.9721Z" fill="#FF6167"/>
<path d="M18.1089 48.9721C17.6089 48.9721 17.2036 48.5667 17.2036 48.0667V39.0123C17.2036 38.5122 17.6089 38.1069 18.1089 38.1069C18.609 38.1069 19.0143 38.5123 19.0143 39.0123V48.0667C19.0143 48.5667 18.609 48.9721 18.1089 48.9721Z" fill="#E9F3FF"/>
<path d="M21.7304 48.9721C21.2304 48.9721 20.825 48.5668 20.825 48.0667V43.8414C20.825 43.3413 21.2304 42.936 21.7304 42.936C22.2304 42.936 22.6358 43.3414 22.6358 43.8414V48.0667C22.6359 48.5668 22.2304 48.9721 21.7304 48.9721Z" fill="#E9F3FF"/>
<path d="M14.487 48.9721C13.987 48.9721 13.5816 48.5668 13.5816 48.0667V41.4269C13.5816 40.9267 13.987 40.5215 14.487 40.5215C14.987 40.5215 15.3924 40.9268 15.3924 41.4269V48.0667C15.3925 48.5668 14.987 48.9721 14.487 48.9721Z" fill="#FF6167"/>
<path d="M46.9879 40.0679L53.2233 46.3033L50.6627 48.8639L44.4272 42.6285L46.9879 40.0679Z" fill="#FF6167"/>
<path d="M26.3097 43.6697C20.3221 37.6822 20.3221 27.9745 26.3097 21.987C28.842 19.4547 32.0397 17.9934 35.3399 17.603C39.5675 17.6517 44.3719 19.9862 47.8272 23.4414C47.8272 23.4414 54.8292 32.8285 46.7809 42.858C46.7809 42.858 41.8614 47.8982 35.3425 48.054C32.0413 47.664 28.8425 46.2026 26.3097 43.6697Z" fill="#007AFF"/>
<path d="M52.4827 32.8277C52.4827 36.7513 50.9869 40.6748 47.9929 43.6688C44.9989 46.6629 41.0753 48.1598 37.1518 48.1598C36.547 48.1598 35.9422 48.1258 35.3409 48.0534C38.6403 47.6635 41.8383 46.2016 44.3711 43.6688C47.3651 40.6748 48.8609 36.7513 48.8609 32.8277C48.8609 28.9042 47.3651 24.9806 44.3711 21.9866C41.8383 19.4538 38.6403 17.9929 35.3409 17.6031C35.9421 17.5306 36.547 17.4956 37.1518 17.4956C41.0753 17.4956 44.9989 18.9926 47.9929 21.9866C50.9869 24.9806 52.4827 28.9042 52.4827 32.8277Z" fill="#007AFF"/>
<path d="M28.8705 41.1084C24.2973 36.5352 24.2973 29.1206 28.8705 24.5475C33.4436 19.9744 40.8582 19.9744 45.4313 24.5475C50.0044 29.1206 50.0044 36.5352 45.4313 41.1084C40.8582 45.6815 33.4436 45.6815 28.8705 41.1084Z" fill="white"/>
<path d="M41.9519 38.5295H39.5374C39.204 38.5295 38.9338 38.2592 38.9338 37.9258V27.6642C38.9338 27.3308 39.204 27.0605 39.5374 27.0605H41.9519C42.2853 27.0605 42.5556 27.3308 42.5556 27.6642V37.9258C42.5556 38.2592 42.2853 38.5295 41.9519 38.5295Z" fill="#FFE589"/>
<path d="M34.7083 38.5295H32.2938C31.9604 38.5295 31.6901 38.2593 31.6901 37.9259V32.4933C31.6901 32.1599 31.9604 31.8896 32.2938 31.8896H34.7083C35.0417 31.8896 35.3119 32.1599 35.3119 32.4933V37.9259C35.3119 38.2593 35.0417 38.5295 34.7083 38.5295Z" fill="#FFE589"/>
<path d="M53.8319 54.5785L48.4663 49.213C48.2311 48.9778 48.2311 48.5965 48.4663 48.3613L50.2923 46.5353L51.288 45.896L57.8121 50.1465C59.2232 51.5576 59.8118 52.7646 58.4007 54.1757C58.4007 54.1757 57.958 54.8699 57.3171 55.5156C56.113 55.8351 54.7762 55.5228 53.8319 54.5785Z" fill="#D19A6E"/>
<path d="M58.9417 54.578C58.4747 55.045 57.9111 55.3584 57.317 55.5154C57.6372 54.311 57.3248 52.9731 56.3807 52.029L53.1447 48.793V46.751L55.7057 46.2319L58.9417 49.4679C60.3527 50.8791 60.3527 53.1669 58.9417 54.578Z" fill="#BC845E"/>
<path d="M53.1448 48.7931L50.5958 51.3421L48.4662 49.2126C48.2308 48.9772 48.2308 48.5957 48.4662 48.3615L50.5952 46.2319L53.5415 46.5597L53.1448 48.7931Z" fill="#007AFF"/>
<path d="M55.7054 46.2321L53.1445 48.793L51.0155 46.6639C50.7824 46.4308 50.4068 46.4274 50.1721 46.6554L52.7236 44.1021C52.9592 43.8664 53.3408 43.8673 53.5764 44.1029L55.7054 46.2321Z" fill="#007AFF"/>
</g>
<defs>
<clipPath id="clip0">
<rect width="60" height="60" fill="white"/>
</clipPath>
</defs>
</svg>
