<svg width="60" height="60" viewBox="0 0 60 60" fill="none" xmlns="http://www.w3.org/2000/svg">
<g clip-path="url(#clip0)">
<path d="M33.3802 60H7.54519C4.87824 60 2.71625 57.838 2.71625 55.1711V4.82895C2.71625 2.16199 4.87824 0 7.54519 0H33.3802C36.0472 0 38.2092 2.16199 38.2092 4.82895V55.1711C38.2092 57.838 36.0472 60 33.3802 60Z" fill="#73B5FD"/>
<path d="M33.3802 0H29.7585C32.4255 0 34.5875 2.16199 34.5875 4.82895V55.1711C34.5875 57.838 32.4255 60 29.7585 60H33.3802C36.0472 60 38.2092 57.838 38.2092 55.1711V4.82895C38.2092 2.16199 36.0472 0 33.3802 0V0Z" fill="#73B5FD"/>
<path d="M35.0704 4.82887V55.171C35.0704 56.1044 34.3137 56.8612 33.3802 56.8612H7.54518C6.61178 56.8612 5.85498 56.1045 5.85498 55.171V4.82887C5.85498 3.89547 6.61166 3.13867 7.54518 3.13867H12.3867C12.6681 3.13867 12.9185 3.31727 13.0101 3.5834L13.6481 5.43684C13.7397 5.70297 13.99 5.88156 14.2715 5.88156H26.654C26.9355 5.88156 27.1858 5.70297 27.2775 5.43684L27.9154 3.5834C28.0071 3.31727 28.2574 3.13867 28.5389 3.13867H33.3803C34.3136 3.13879 35.0704 3.89547 35.0704 4.82887Z" fill="#E9F3FF"/>
<path d="M33.3802 3.13867H29.7585C30.6919 3.13867 31.4487 3.89535 31.4487 4.82887V55.171C31.4487 56.1044 30.6921 56.8612 29.7585 56.8612H33.3802C34.3136 56.8612 35.0704 56.1045 35.0704 55.171V4.82875C35.0704 3.89535 34.3136 3.13867 33.3802 3.13867Z" fill="#E9F3FF"/>
<path d="M25.171 49.0744H15.7545C14.3544 49.0744 13.2193 47.9393 13.2193 46.5391C13.2193 45.139 14.3544 44.0039 15.7545 44.0039H25.171C26.5712 44.0039 27.7062 45.139 27.7062 46.5391C27.7062 47.9393 26.5712 49.0744 25.171 49.0744Z" fill="#007AFF"/>
<path d="M54.9138 38.5715H13.2954C11.9865 38.5715 10.9255 37.5105 10.9255 36.2017V11.9675C10.9255 10.6587 11.9865 9.59766 13.2954 9.59766H54.9137C56.2225 9.59766 57.2836 10.6587 57.2836 11.9675V36.2017C57.2837 37.5105 56.2227 38.5715 54.9138 38.5715Z" fill="#007AFF"/>
<path d="M54.9138 9.59766H51.2921C52.601 9.59766 53.662 10.6587 53.662 11.9675V36.2017C53.662 37.5105 52.601 38.5715 51.2921 38.5715H54.9138C56.2227 38.5715 57.2837 37.5105 57.2837 36.2017V11.9675C57.2837 10.6588 56.2227 9.59766 54.9138 9.59766Z" fill="#1F84EC"/>
<path d="M45.0669 27.2413C45.0639 27.2334 45.0608 27.2255 45.0576 27.2176C44.897 26.827 44.5206 26.5747 44.0983 26.5747H44.0978C43.6754 26.5748 43.2987 26.8276 43.1384 27.2185C43.1357 27.2253 43.1329 27.2321 43.1303 27.2392L40.5084 34.1235C40.3355 34.577 40.5633 35.0847 41.017 35.2576C41.1199 35.2969 41.2256 35.3154 41.3296 35.3154C41.6837 35.3154 42.0175 35.0997 42.1511 34.749L42.5885 33.6006H45.5879L46.0204 34.7465C46.1917 35.2006 46.6989 35.43 47.153 35.2584C47.6071 35.0871 47.8363 34.58 47.6649 34.1258L45.0669 27.2413ZM43.2581 31.8428L44.0952 29.6448L44.9247 31.8428H43.2581Z" fill="#F8F7F7"/>
<path d="M52.8732 26.7344C52.4664 26.4695 51.9218 26.5848 51.6571 26.9914L50.1804 29.2598L48.687 26.9727C48.4216 26.5661 47.8769 26.452 47.4706 26.7173C47.0642 26.9827 46.9498 27.5272 47.2151 27.9337L49.302 31.1295L49.2938 34.4336C49.2926 34.9192 49.6852 35.3136 50.1705 35.3148H50.1727C50.6571 35.3148 51.0504 34.9227 51.0516 34.4381L51.0598 31.1309L53.1301 27.9505C53.395 27.5436 53.2799 26.9991 52.8732 26.7344Z" fill="#F8F7F7"/>
<path d="M38.2123 26.5747H36.2681C36.0345 26.5747 35.8106 26.6678 35.6456 26.8331C35.4807 26.9986 35.3883 27.2229 35.3892 27.4564V34.4362C35.3892 34.9217 35.7826 35.3151 36.2681 35.3151C36.7536 35.3151 37.147 34.9217 37.147 34.4362V32.2774C37.5365 32.2754 37.9645 32.2735 38.2123 32.2735C39.8048 32.2735 41.1004 30.9953 41.1004 29.4241C41.1004 27.853 39.8048 26.5747 38.2123 26.5747ZM38.2123 30.5156C37.9661 30.5156 37.5435 30.5175 37.1558 30.5194C37.1537 30.1181 37.1519 29.677 37.1519 29.4239C37.1519 29.2093 37.1507 28.7525 37.1496 28.3324H38.2122C38.8249 28.3324 39.3425 28.8323 39.3425 29.4239C39.3426 30.0158 38.825 30.5156 38.2123 30.5156Z" fill="#F8F7F7"/>
<path d="M24.5674 20.5833H17.0825C16.6824 20.5833 16.3582 20.259 16.3582 19.8589V15.03C16.3582 14.6299 16.6824 14.3057 17.0825 14.3057H24.5674C24.9675 14.3057 25.2917 14.6299 25.2917 15.03V19.8589C25.2917 20.259 24.9675 20.5833 24.5674 20.5833Z" fill="#FFE589"/>
<path d="M21.5492 34.0838H10.9255V27.8062H21.5492C23.2828 27.8062 24.6881 29.2115 24.6881 30.945C24.6881 32.6785 23.2828 34.0838 21.5492 34.0838Z" fill="#FF6167"/>
<path d="M33.0668 15.6084C32.5813 15.6084 32.1879 16.0018 32.1879 16.4873V17.936C32.1879 18.4215 32.5813 18.8149 33.0668 18.8149C33.5523 18.8149 33.9457 18.4215 33.9457 17.936V16.4873C33.9457 16.0019 33.5522 15.6084 33.0668 15.6084Z" fill="#F8F7F7"/>
<path d="M48.0006 15.6084C47.5151 15.6084 47.1217 16.0018 47.1217 16.4873V17.936C47.1217 18.4215 47.5151 18.8149 48.0006 18.8149C48.4861 18.8149 48.8795 18.4215 48.8795 17.936V16.4873C48.8795 16.0019 48.4861 15.6084 48.0006 15.6084Z" fill="#F8F7F7"/>
<path d="M51.2282 15.6084C50.7427 15.6084 50.3493 16.0018 50.3493 16.4873V17.936C50.3493 18.4215 50.7427 18.8149 51.2282 18.8149C51.7137 18.8149 52.1071 18.4215 52.1071 17.936V16.4873C52.1071 16.0019 51.7137 15.6084 51.2282 15.6084Z" fill="#F8F7F7"/>
<path d="M37.7532 15.6084C37.2677 15.6084 36.8743 16.0018 36.8743 16.4873V17.936C36.8743 18.4215 37.2677 18.8149 37.7532 18.8149C38.2387 18.8149 38.6321 18.4215 38.6321 17.936V16.4873C38.6321 16.0019 38.2387 15.6084 37.7532 15.6084Z" fill="#F8F7F7"/>
<path d="M41.1741 15.6084C40.6886 15.6084 40.2952 16.0018 40.2952 16.4873V17.936C40.2952 18.4215 40.6886 18.8149 41.1741 18.8149C41.6596 18.8149 42.053 18.4215 42.053 17.936V16.4873C42.053 16.0019 41.6595 15.6084 41.1741 15.6084Z" fill="#F8F7F7"/>
</g>
<defs>
<clipPath id="clip0">
<rect width="60" height="60" fill="white"/>
</clipPath>
</defs>
</svg>
