<svg width="23" height="23" viewBox="0 0 23 23" fill="none" xmlns="http://www.w3.org/2000/svg">
<g clip-path="url(#clip0)">
<path d="M0.718811 6.10938L11.5001 11.5L22.2813 6.10938V17.6094L11.5001 22.9999L0.718811 17.6093V6.10938Z" fill="#DB5449"/>
<path d="M0.718811 7.1875V10.5476L11.4641 15.8125L22.2813 10.5297V7.1875L11.5001 12.4704L0.718811 7.1875Z" fill="#C54B42"/>
<path d="M11.5001 22.9999V11.5L1.43757 6.46875H0.718811V17.6094L11.5001 22.9999Z" fill="#D05045"/>
<path d="M0.718811 7.1875V10.5476L11.4641 15.8125L11.5001 15.7945V12.4523V12.4703L0.718811 7.1875Z" fill="#BB483E"/>
<path d="M0 5.733L11.5 0.000976562L23 5.733V6.48771L11.5 12.2196L0 6.50564V5.733Z" fill="#EB6258"/>
<path d="M18.0945 1.81486C17.7171 1.13205 16.9085 0.71875 15.9562 0.71875C13.782 0.71875 12.2547 2.74923 11.4999 4.04298C10.7452 2.74923 9.19997 0.736726 7.0437 0.736726C5.66011 0.736726 4.67181 1.58127 4.67181 2.73126C4.67181 4.77967 6.91791 6.10937 11.428 6.10937C15.9382 6.10937 18.328 4.40236 18.328 2.74923C18.3281 2.4258 18.2562 2.10238 18.0945 1.81486ZM7.51093 4.02505C7.00779 3.68365 6.82813 3.3063 6.82813 3.05473C6.82813 2.74928 7.11565 2.51568 7.52891 2.51568C8.49923 2.51568 9.27187 3.79146 9.7031 4.67195C8.57109 4.58207 7.90621 4.27657 7.51093 4.02505ZM15.489 4.02505C15.0937 4.27662 14.4289 4.58207 13.2968 4.6719C13.7101 3.79146 14.4828 2.51564 15.471 2.51564C15.8843 2.51564 16.1718 2.74923 16.1718 3.05468C16.1719 3.3063 15.9921 3.6836 15.489 4.02505Z" fill="#EFEFEF"/>
<path d="M0 5.75L11.5 11.3742L23 5.75V9.46952L11.464 15.0937L0 9.46952V5.75Z" fill="#E2574C"/>
<path d="M15.8125 9.7569V9.34364L11.5 7.00771L7.18748 9.34364V9.7569L4.3125 8.4991V7.92411L11.3562 4.20459L11.5 4.27645L11.6437 4.20459L18.6874 7.90613V8.48113L15.8125 9.7569Z" fill="#EFEFEF"/>
<path d="M15.8125 9.34376V20.8258L18.6875 19.3883V7.90625L15.8125 9.34376Z" fill="#DCDCDC"/>
<path d="M4.3125 19.4062L7.18748 20.8437V9.36174L4.3125 7.90625C4.3125 7.9062 4.3125 19.4062 4.3125 19.4062Z" fill="#D1D1D1"/>
</g>
<defs>
<clipPath id="clip0">
<rect width="23" height="23" fill="white"/>
</clipPath>
</defs>
</svg>
