<svg width="60" height="60" viewBox="0 0 60 60" fill="none" xmlns="http://www.w3.org/2000/svg">
<path d="M32.5876 8.35693L33.9341 5.1085L44.8394 9.62878L43.4929 12.8772L32.5876 8.35693Z" fill="#007AFF"/>
<path d="M47.1352 16.5024L50.3836 15.156L54.903 26.0592L51.6546 27.4057L47.1352 16.5024Z" fill="#007AFF"/>
<path d="M47.1386 43.478L51.658 32.5747L54.9064 33.9212L50.387 44.8245L47.1386 43.478Z" fill="#007AFF"/>
<path d="M32.5902 51.6431L43.4955 47.1228L44.842 50.3712L33.9367 54.8915L32.5902 51.6431Z" fill="#007AFF"/>
<path d="M15.1796 9.62842L26.085 5.10813L27.4315 8.35657L16.5261 12.8769L15.1796 9.62842Z" fill="#007AFF"/>
<path d="M5.11522 26.0806L9.63465 15.1773L12.8831 16.5238L8.36366 27.427L5.11522 26.0806Z" fill="#007AFF"/>
<path d="M5.12608 33.9219L8.37452 32.5754L12.894 43.4787L9.64551 44.8252L5.12608 33.9219Z" fill="#007AFF"/>
<path d="M15.1872 50.3838L16.5337 47.1353L27.439 51.6556L26.0925 54.9041L15.1872 50.3838Z" fill="#007AFF"/>
<path d="M8.86852 16.327C6.812 14.2705 6.812 10.9266 8.86852 8.87003C10.9318 6.81011 14.2724 6.81691 16.3289 8.87003V8.87179C18.382 10.9266 18.382 14.2705 16.3289 16.3254C14.2768 18.3842 10.9234 18.3854 8.86852 16.327Z" fill="#66CCFF"/>
<path d="M5.39062 35.2734C2.48273 35.2734 0 32.9079 0 30C0 27.0921 2.48273 24.7266 5.39062 24.7266C8.29852 24.7266 10.6641 27.0921 10.6641 30C10.6641 32.9079 8.29852 35.2734 5.39062 35.2734Z" fill="#66CCFF"/>
<path d="M8.86852 51.1298C6.812 49.0732 6.812 45.7293 8.86852 43.6728C10.9318 41.6128 14.2724 41.6196 16.3289 43.6728C18.382 45.7293 18.382 49.0732 16.3289 51.128C14.2768 53.187 10.9234 53.188 8.86852 51.1298Z" fill="#66CCFF"/>
<path d="M30.143 15.9382C22.414 15.8602 15.9375 22.1438 15.9375 29.9995C15.9375 34.312 17.891 38.3281 21.2203 40.9847C21.5637 41.2589 24.7102 41.58 24.9434 40.7972C25.6055 38.58 27.6844 37.0308 30 37.0308C32.3118 37.0308 34.3916 38.5742 35.0566 40.7972C35.3859 41.9035 38.4363 41.2589 38.7809 40.9847C42.1102 38.3269 44.0625 34.3097 44.0625 29.9995C44.0625 22.2933 37.8316 16.0144 30.143 15.9382Z" fill="#007AFF"/>
<path d="M30.143 15.9381C30.0952 15.9377 30.0477 15.9385 30 15.9385V37.0307C32.3118 37.0307 34.3916 38.5741 35.0566 40.7971C35.3859 41.9034 38.4363 41.2588 38.7809 40.9846C42.1102 38.3268 44.0625 34.3096 44.0625 29.9995C44.0625 22.2932 37.8316 16.0143 30.143 15.9381Z" fill="#007AFF"/>
<path d="M38.4246 39.7917C37.6849 37.3108 35.0188 33.5151 30 33.5151C24.9455 33.5151 22.3043 37.3469 21.5754 39.7917L21.2203 40.9847C23.0103 42.4144 25.9911 44.062 30 44.062C32.3038 44.062 35.6389 43.4855 38.7809 40.9847L38.4246 39.7917Z" fill="#FF6167"/>
<path d="M38.7809 40.9847L38.4246 39.7917C37.6849 37.3108 35.0188 33.5151 30 33.5151V44.062C32.3038 44.062 35.6389 43.4855 38.7809 40.9847Z" fill="#FF6167"/>
<path d="M30 33.5151C27.0922 33.5151 24.7266 31.1495 24.7266 28.2417C24.7266 25.3339 27.0922 22.9683 30 22.9683C32.9078 22.9683 35.2734 25.3339 35.2734 28.2417C35.2734 31.1495 32.9078 33.5151 30 33.5151Z" fill="#FFE589"/>
<path d="M35.2734 28.2417C35.2734 25.3339 32.9078 22.9683 30 22.9683V33.5151C32.9078 33.5151 35.2734 31.1495 35.2734 28.2417Z" fill="#FFE589"/>
<path d="M30 0C27.0819 0 24.7266 2.47254 24.7266 5.39062C24.7266 8.30848 27.0819 10.6641 30 10.6641C32.9181 10.6641 35.2734 8.30848 35.2734 5.39062C35.2734 2.47254 32.9181 0 30 0Z" fill="#66CCFF"/>
<path d="M30 49.3359C27.0819 49.3359 24.7266 51.6913 24.7266 54.6094C24.7266 57.5272 27.0819 60 30 60C32.9181 60 35.2734 57.5272 35.2734 54.6094C35.2734 51.6913 32.9181 49.3359 30 49.3359Z" fill="#66CCFF"/>
<path d="M43.6711 51.1296V51.1278C41.618 49.073 41.618 45.7291 43.6711 43.6742C45.7173 41.616 49.0716 41.6109 51.1315 43.6724C53.188 45.729 53.188 49.0729 51.1315 51.1294C49.0734 53.1841 45.7352 53.1902 43.6711 51.1296Z" fill="#59ABFF"/>
<path d="M54.6094 35.2734C51.7015 35.2734 49.3359 32.9079 49.3359 30C49.3359 27.0921 51.7015 24.7266 54.6094 24.7266C57.5173 24.7266 60 27.0921 60 30C60 32.9079 57.5173 35.2734 54.6094 35.2734Z" fill="#59ABFF"/>
<path d="M43.6711 16.3267C41.618 14.2702 41.618 10.9262 43.6711 8.87146C45.7173 6.8133 49.0716 6.80814 51.1315 8.8697C53.188 10.9262 53.188 14.2702 51.1315 16.3267C49.0734 18.3813 45.7352 18.3874 43.6711 16.3267Z" fill="#59ABFF"/>
<path d="M35.2734 54.6094C35.2734 57.5272 32.9181 60 30 60V49.3359C32.9181 49.3359 35.2734 51.6913 35.2734 54.6094Z" fill="#59ABFF"/>
<path d="M30 10.6641V0C32.9181 0 35.2734 2.47254 35.2734 5.39062C35.2734 8.30848 32.9181 10.6641 30 10.6641Z" fill="#59ABFF"/>
</svg>
