<svg width="50" height="50" viewBox="0 0 50 50" fill="none" xmlns="http://www.w3.org/2000/svg">
<path d="M38.2353 0H11.7647C5.26724 0 0 5.26724 0 11.7647V38.2353C0 44.7328 5.26724 50 11.7647 50H38.2353C44.7328 50 50 44.7328 50 38.2353V11.7647C50 5.26724 44.7328 0 38.2353 0Z" fill="#007AFF"/>
<path d="M36.9112 24.9991V24.5061C37.0727 24.5422 37.1535 24.6309 37.1535 24.7718C37.1535 24.8402 37.1305 24.8946 37.0841 24.9352C37.0381 24.9778 36.9803 24.9991 36.9112 24.9991Z" fill="white"/>
<path d="M36.9112 29.6444V30.1375C36.9803 30.1375 37.0381 30.1162 37.0841 30.0735C37.1305 30.0329 37.1535 29.9785 37.1535 29.9102C37.1535 29.7691 37.0727 29.6806 36.9112 29.6444Z" fill="white"/>
<path fill-rule="evenodd" clip-rule="evenodd" d="M29.7619 40.4759C38.1776 40.4759 45 33.6537 45 25.2378C45 16.8221 38.1776 9.99971 29.7619 9.99971C22.0229 9.99971 15.6315 15.7688 14.6535 23.2409C15.4784 22.3652 16.5299 21.9272 17.8078 21.9272C18.9984 21.9272 19.8532 22.185 20.3726 22.7006H20.4106C20.3979 22.5749 20.3916 22.4302 20.3916 22.2668V18.3807H23.6784V32.095H20.6006V31.2272L20.6196 30.6802H20.5816C19.961 31.6234 19.0174 32.095 17.7507 32.095C17.1007 32.095 16.5128 31.984 15.9869 31.7616C18.4312 36.9134 23.6804 40.4759 29.7619 40.4759ZM27.9306 22.1535H24.6438V28.4541C24.6438 29.7369 24.9541 30.6675 25.5749 31.246C26.2079 31.8119 27.0568 32.095 28.1206 32.095C28.7793 32.095 29.3872 31.9441 29.9446 31.6422C30.5019 31.3405 30.9135 30.9318 31.1794 30.416H31.2175L31.1794 31.0197V32.095H34.3334V22.1535H31.0465V26.4546C31.0465 27.2218 30.8691 27.8631 30.5144 28.3787C30.1599 28.8818 29.6468 29.1332 28.9756 29.1332C28.279 29.1332 27.9306 28.7057 27.9306 27.8504V22.1535ZM37.3012 22.4368C37.1354 22.2724 36.9374 22.1902 36.7065 22.1902C36.4716 22.1902 36.2715 22.2724 36.1057 22.4368C35.94 22.6034 35.8571 22.8275 35.8571 23.1093C35.8571 23.2459 35.8813 23.3772 35.9296 23.5032C35.9776 23.6313 36.0426 23.7359 36.1246 23.8171L36.5051 23.6153C36.3751 23.4616 36.31 23.311 36.31 23.1637C36.31 23.0335 36.35 22.9321 36.4297 22.8596C36.5115 22.7869 36.6059 22.7506 36.7128 22.7506C36.8176 22.7506 36.9079 22.7849 36.9834 22.8531C37.0609 22.9235 37.0999 23.0207 37.0999 23.1446C37.0999 23.2918 37.0474 23.421 36.9425 23.5321L37.3074 23.7657C37.3893 23.689 37.45 23.5907 37.4899 23.4712C37.5318 23.3538 37.5528 23.2331 37.5528 23.1093C37.5528 22.8275 37.469 22.6034 37.3012 22.4368ZM37.3106 24.1597C37.1512 24.0038 36.9499 23.9259 36.7065 23.9259C36.4757 23.9259 36.2766 24.0071 36.1087 24.1693C35.9409 24.3315 35.8571 24.5525 35.8571 24.8322C35.8571 24.9603 35.8781 25.0874 35.92 25.2132C35.9621 25.3413 36.0196 25.4493 36.0931 25.5368L36.4737 25.3318C36.3647 25.1653 36.31 25.0137 36.31 24.8771C36.31 24.7831 36.3343 24.6999 36.3825 24.6272C36.4329 24.5568 36.5051 24.5119 36.5996 24.4928V25.5335C36.675 25.5421 36.7318 25.5463 36.7696 25.5463C37.0001 25.5463 37.1878 25.4781 37.3325 25.3413C37.4794 25.2069 37.5528 25.0212 37.5528 24.7841C37.5528 24.5237 37.4719 24.3156 37.3106 24.1597ZM35.8949 25.8357H37.515V26.3674H37.3735L37.2728 26.361V26.3674C37.4594 26.4806 37.5528 26.6556 37.5528 26.8927C37.5528 27.2875 37.3504 27.485 36.9457 27.485H35.8949V26.931H36.845C36.9876 26.931 37.0588 26.8702 37.0588 26.7485C37.0588 26.631 37.0181 26.5413 36.9362 26.4796C36.8544 26.4197 36.7516 26.3899 36.6279 26.3899H35.8949V25.8357ZM37.0621 27.9365H36.4925C36.4066 27.9365 36.329 27.9493 36.2599 27.975C36.1906 28.0006 36.1338 28.0357 36.0899 28.0806C36.0479 28.1255 36.0124 28.1725 35.9831 28.2215C35.9537 28.2728 35.9316 28.3294 35.9169 28.3913C35.9022 28.4553 35.8928 28.5109 35.8885 28.5578C35.8822 28.6069 35.8793 28.6571 35.8793 28.7082C35.8793 28.7255 35.8822 28.7756 35.8885 28.8588H36.3606C36.3584 28.8353 36.3574 28.8107 36.3574 28.7852C36.3574 28.5887 36.4265 28.4906 36.565 28.4906H37.0621V28.8365H37.4868V28.4906H37.9524V27.9525H37.4868V27.7252H37.0621V27.9365ZM36.7065 29.0643C36.9499 29.0643 37.1512 29.1422 37.3106 29.2979C37.4719 29.4538 37.5528 29.6621 37.5528 29.9224C37.5528 30.1596 37.4794 30.3453 37.3325 30.4797C37.1878 30.6163 37.0001 30.6847 36.7696 30.6847C36.7318 30.6847 36.675 30.6803 36.5996 30.6719V29.6309C36.5051 29.6502 36.4329 29.6952 36.3825 29.7656C36.3343 29.8382 36.31 29.9215 36.31 30.0153C36.31 30.1519 36.3647 30.3035 36.4737 30.47L36.0931 30.675C36.0196 30.5875 35.9621 30.4797 35.92 30.3515C35.8781 30.2256 35.8571 30.0985 35.8571 29.9706C35.8571 29.6907 35.9409 29.4699 36.1087 29.3075C36.2766 29.1454 36.4757 29.0643 36.7065 29.0643ZM37.515 30.974H35.8949V31.5281H36.524C36.6771 31.5281 36.7968 31.5666 36.8826 31.6434C36.9687 31.7203 37.0118 31.8334 37.0118 31.9829C37.0118 32.0384 37.0085 32.0757 37.0022 32.095H37.5371C37.5413 32.0693 37.5434 32.0479 37.5434 32.0309C37.5434 31.9113 37.5046 31.8024 37.4271 31.7043C37.3493 31.6081 37.2538 31.5421 37.1407 31.5056V31.4993L37.2413 31.5056H37.515V30.974Z" fill="white"/>
<path d="M17.2 25.3037C16.8326 25.7187 16.649 26.2847 16.649 27.0015C16.649 27.7184 16.8263 28.2968 17.1809 28.7371C17.5356 29.1771 17.9979 29.3974 18.5678 29.3974C19.1125 29.3974 19.5685 29.196 19.9357 28.7935C20.3031 28.3912 20.4868 27.7938 20.4868 27.0015C20.4868 26.3727 20.3157 25.8319 19.9738 25.3791C19.6444 24.9138 19.1759 24.6812 18.5678 24.6812C18.0232 24.6812 17.5672 24.8887 17.2 25.3037Z" fill="white"/>
<path fill-rule="evenodd" clip-rule="evenodd" d="M6.38679 23.4525C5.46217 24.4083 4.99986 25.6156 4.99986 27.0744C4.99986 28.4578 5.48117 29.6525 6.44379 30.6587C7.40641 31.6647 8.71733 32.1678 10.3766 32.1678C11.1366 32.1678 11.8902 32.0421 12.6375 31.7905C13.3974 31.539 14.0371 31.1931 14.5564 30.753L13.3404 28.4703C12.3525 29.1243 11.4532 29.4513 10.6426 29.4513C10.0853 29.4513 9.59129 29.3066 9.16064 29.0175C8.74267 28.7156 8.47669 28.2818 8.36269 27.7159H14.5374C14.588 27.2631 14.6134 26.9236 14.6134 26.6971C14.6134 25.3138 14.2081 24.1883 13.3974 23.3205C12.5995 22.4402 11.4975 22 10.0916 22C8.54635 22 7.31141 22.4841 6.38679 23.4525ZM11.3645 25.8483H8.43869C8.65403 24.8799 9.17966 24.3958 10.0156 24.3958C10.4209 24.3958 10.7439 24.534 10.9846 24.8108C11.2379 25.0874 11.3645 25.4333 11.3645 25.8483Z" fill="white"/>
</svg>
