<svg width="60" height="60" viewBox="0 0 60 60" fill="none" xmlns="http://www.w3.org/2000/svg">
<g clip-path="url(#clip0)">
<path d="M54 30V22C54 18.6863 51.3137 16 48 16H33.3596C32.606 16 31.9991 16.6166 32.0001 17.3702C32.0012 18.2871 32.1473 19.1704 32.4142 20.0001H4.07921C1.83788 20.0001 -0.0406357 21.8343 0.000731491 24.0753C0.0408096 26.2486 1.81714 28.0001 3.99999 28.0001H8.00007V52.0001H44.0001H48C51.3141 52.0001 54 49.3141 54 46.0001H58.2422C59.213 46.0001 60 45.2131 60 44.2423V31.7578C60 30.7871 59.213 30 58.2422 30H54Z" fill="#FFDCC8"/>
<path d="M38.6842 0H13.3159C10.3847 0 8.00006 2.38465 8.00006 5.31574V54.6841C8.00006 57.6152 10.3848 59.9999 13.3159 59.9999H38.6842C41.6153 59.9999 44.0001 57.6152 44.0001 54.6841V5.31574C44.0001 2.38465 41.6153 0 38.6842 0V0Z" fill="#73B5FD"/>
<path d="M44.0001 54.6843V5.31574C44.0001 2.38465 41.6153 0 38.6842 0H26.0001V60H38.6842C41.6153 60 44.0001 57.6154 44.0001 54.6843Z" fill="#73B5FD"/>
<path d="M38.4765 3.51562H36.4688V5.5234C36.4688 8.57391 33.9959 11.0468 30.9454 11.0468H21.0548C18.0042 11.0468 15.5314 8.57391 15.5314 5.5234V3.51562H13.5236C12.4165 3.51562 11.5157 4.41633 11.5157 5.5234V54.4765C11.5157 55.5836 12.4165 56.4843 13.5236 56.4843H38.4765C39.5836 56.4843 40.4844 55.5836 40.4844 54.4765V5.5234C40.4844 4.41633 39.5836 3.51562 38.4765 3.51562Z" fill="#BED9FD"/>
<path d="M40.4844 54.4766V5.5234C40.4844 4.41633 39.5836 3.51562 38.4765 3.51562H36.4688V5.5234C36.4688 8.57391 33.9959 11.0468 30.9454 11.0468H26.0001V56.4844H38.4765C39.5836 56.4844 40.4844 55.5837 40.4844 54.4766Z" fill="#BED9FD"/>
<path d="M8.00008 51.9999C10.2092 51.9999 12 50.2091 12 48C12 45.7908 10.2092 44 8.00008 44C5.79097 44 4.00012 45.7908 4.00012 48C4.00012 50.2091 5.79097 51.9999 8.00008 51.9999Z" fill="#FFDCC8"/>
<path d="M13 35.9999C15.2081 35.9999 17.0001 34.2079 17.0001 32C17.0001 29.792 15.2081 28 13 28H5.00008C2.79204 28 1.00012 29.792 1.00012 32C1.00012 34.2079 2.79204 35.9999 5.00008 35.9999H7.00012C4.79208 35.9999 3.00016 37.792 3.00016 39.9999C3.00016 42.2078 4.79219 43.9999 7.00012 43.9999H13.0001C15.2082 43.9999 17.0002 42.2078 17.0002 39.9999C17.0002 37.792 15.2081 35.9999 13 35.9999Z" fill="#FFDCC8"/>
<path d="M29.7657 52.4688H22.2344C21.2636 52.4688 20.4766 51.6817 20.4766 50.7109C20.4766 49.7402 21.2636 48.9531 22.2344 48.9531H29.7657C30.7364 48.9531 31.5235 49.7402 31.5235 50.7109C31.5235 51.6817 30.7364 52.4688 29.7657 52.4688Z" fill="#FFE589"/>
<path d="M31.5235 50.7109C31.5235 49.7402 30.7364 48.9531 29.7656 48.9531H26.0001V52.4688H29.7656C30.7364 52.4688 31.5235 51.6818 31.5235 50.7109Z" fill="#FF6167"/>
<path d="M54 27.4219V22C54 18.6863 51.3137 16 48 16H33.3596C32.609 16 32.0001 16.6089 32.0001 17.3596C32.0001 22.124 35.8762 26.0001 40.6405 26.0001H43.9999V52.0001H48C51.3141 52.0001 54 49.3141 54 46.0001H58.2422C59.213 46.0001 60 45.2131 60 44.2423V29.1797C60 28.2089 59.213 27.4219 58.2422 27.4219H54Z" fill="#FFC5BB"/>
<path d="M13 36H6.99996C4.79191 36 3 37.792 3 40C3 42.2079 4.79203 43.9999 6.99996 43.9999H13C15.208 43.9999 17 42.2079 17 40C17 37.792 15.208 36 13 36Z" fill="#FFC5BB"/>
<path d="M44.0001 36V52H48C51.3141 52 54 49.3139 54 46H58.2422C59.213 46 60 45.2129 60 44.2421V36H44.0001Z" fill="#FFDCC8"/>
</g>
<defs>
<clipPath id="clip0">
<rect width="60" height="60" fill="white"/>
</clipPath>
</defs>
</svg>
