<svg width="34" height="34" viewBox="0 0 34 34" fill="none" xmlns="http://www.w3.org/2000/svg">
<circle cx="17" cy="17" r="17" fill="#10A9FF"/>
<path d="M10.7286 16.827C11.928 16.1664 13.2669 15.615 14.5178 15.0607C16.67 14.153 18.8307 13.2609 21.0132 12.4304C21.4379 12.289 22.2008 12.1506 22.2757 12.7799C22.2347 13.6706 22.0661 14.5562 21.9506 15.4417C21.6572 17.3891 21.3181 19.3298 20.9874 21.2708C20.8735 21.9173 20.0635 22.252 19.5453 21.8382C18.2999 20.997 17.0449 20.1639 15.8154 19.3032C15.4127 18.894 15.7861 18.3062 16.1458 18.014C17.1716 17.0031 18.2594 16.1442 19.2316 15.0811C19.4938 14.4479 18.719 14.9816 18.4634 15.1451C17.0591 16.1128 15.6892 17.1396 14.2087 17.9901C13.4524 18.4064 12.571 18.0506 11.8151 17.8183C11.1373 17.5377 10.1441 17.255 10.7285 16.8271L10.7286 16.827Z" fill="white"/>
</svg>
