<svg width="44" height="44" viewBox="0 0 44 44" fill="none" xmlns="http://www.w3.org/2000/svg">
<circle cx="22" cy="22" r="22" fill="#10A9FF"/>
<path d="M13.8841 21.7759C15.4362 20.921 17.1689 20.2074 18.7878 19.4901C21.573 18.3154 24.3692 17.161 27.1936 16.0862C27.7431 15.9031 28.7305 15.7241 28.8273 16.5384C28.7743 17.6912 28.5562 18.8371 28.4066 19.9831C28.027 22.5033 27.5881 25.0148 27.1602 27.5266C27.0127 28.3633 25.9646 28.7964 25.294 28.261C23.6822 27.1724 22.0581 26.0943 20.467 24.9804C19.9458 24.4508 20.4291 23.6902 20.8946 23.312C22.2221 22.0038 23.6299 20.8923 24.8879 19.5165C25.2273 18.697 24.2246 19.3877 23.8938 19.5993C22.0765 20.8516 20.3037 22.1804 18.3877 23.281C17.409 23.8198 16.2683 23.3594 15.2901 23.0588C14.413 22.6956 13.1277 22.3297 13.884 21.776L13.8841 21.7759Z" fill="white"/>
</svg>
