<svg width="60" height="60" viewBox="0 0 60 60" fill="none" xmlns="http://www.w3.org/2000/svg">
<g clip-path="url(#clip0)">
<path d="M38.2831 52.8663L38.0715 52.9458L0.951532 53.0118C0.925215 40.37 10.344 31.0833 21.9817 31.0699C26.7027 31.0358 31.2937 32.6159 34.9935 35.5484C35.0729 35.6144 35.139 35.667 35.2179 35.7331V43.5135C35.2071 46.88 36.282 50.1598 38.2831 52.8663Z" fill="#FF6167"/>
<path d="M21.9951 0C28.9768 0 34.6369 5.66016 34.6369 12.6418C34.6369 19.624 28.9768 25.2836 21.9951 25.2836C15.0129 25.2836 9.35327 19.624 9.35327 12.6418C9.35327 5.66016 15.0129 0 21.9951 0Z" fill="#FFE589"/>
<path d="M21.9951 31.0698H21.9688C10.344 31.0961 0.925215 40.3828 0.951532 53.0118L21.9951 52.972V31.0698Z" fill="#FF6167"/>
<path d="M21.9951 0C15.0129 0 9.35327 5.66016 9.35327 12.6418C9.35327 19.624 15.0129 25.2836 21.9951 25.2836V0Z" fill="#FFE589"/>
<path d="M58.2827 34.4117L46.8958 28.3485C46.5037 28.1344 46.0284 28.1396 45.6409 28.3614L34.5708 34.4251C34.1472 34.6584 33.884 35.1037 33.884 35.5872V43.5132C33.8752 47.165 35.0425 50.7219 37.2128 53.6585C39.0039 56.0926 41.4049 58.0111 44.1744 59.2201L45.7069 59.8935C45.8731 59.9678 46.0537 60.0039 46.2353 59.9993C46.4165 59.9962 46.5955 59.9606 46.7637 59.8935L48.4939 59.1541C51.6029 57.8429 54.2583 55.6472 56.1294 52.8396C58.0041 50.032 59.0015 46.7305 58.9958 43.3547V35.5872C58.9855 35.0959 58.7136 34.648 58.2827 34.4117Z" fill="#007AFF"/>
<path d="M44.6631 48.3351C44.2776 48.3341 43.9112 48.1654 43.6594 47.8728L40.6609 44.3592C40.1866 43.8045 40.2517 42.9706 40.8059 42.4964C41.3606 42.0222 42.1945 42.0872 42.6687 42.6419L44.822 45.1647L50.7928 40.3039C51.3584 39.8405 52.1922 39.9231 52.6551 40.4886C53.1185 41.0542 53.0359 41.888 52.4704 42.3514L45.4954 48.0317C45.2637 48.2294 44.968 48.3372 44.6631 48.3351Z" fill="white"/>
</g>
<defs>
<clipPath id="clip0">
<rect width="60" height="60" fill="white"/>
</clipPath>
</defs>
</svg>
