<svg width="44" height="44" viewBox="0 0 44 44" fill="none" xmlns="http://www.w3.org/2000/svg">
<circle cx="22" cy="22" r="22" fill="#4EBC5F"/>
<path fill-rule="evenodd" clip-rule="evenodd" d="M22.0381 31.034H22.0344C20.5171 31.0335 19.0263 30.6528 17.7022 29.9306L12.8965 31.1912L14.1826 26.4936C13.3893 25.1188 12.9719 23.5593 12.9725 21.9615C12.9745 16.9632 17.0413 12.8967 22.038 12.8967C24.4631 12.8978 26.7392 13.8419 28.4508 15.5554C30.1623 17.2689 31.1044 19.5465 31.1034 21.9687C31.1014 26.9659 27.0363 31.0319 22.0381 31.034ZM17.9248 28.2896L18.2 28.4529C19.3568 29.1394 20.6829 29.5027 22.035 29.5032H22.0381C26.191 29.5032 29.5711 26.123 29.5727 21.9684C29.5735 19.955 28.7905 18.062 27.368 16.6378C25.9454 15.2135 24.0536 14.4288 22.041 14.4281C17.8849 14.4281 14.5047 17.8079 14.5031 21.9623C14.5025 23.386 14.9009 24.7725 15.6551 25.9722L15.8343 26.2572L15.0731 29.0377L17.9248 28.2896ZM26.2946 23.9205C26.4526 23.9968 26.5593 24.0484 26.6049 24.1244C26.6615 24.2189 26.6615 24.6724 26.4728 25.2016C26.284 25.7307 25.379 26.2136 24.9438 26.2786C24.5536 26.3369 24.0597 26.3613 23.5171 26.1888C23.1881 26.0844 22.7662 25.9451 22.2258 25.7117C20.1023 24.7947 18.6673 22.7366 18.396 22.3476C18.377 22.3204 18.3637 22.3013 18.3563 22.2914L18.3545 22.289C18.2346 22.129 17.4314 21.0573 17.4314 19.9482C17.4314 18.9048 17.9439 18.3579 18.1798 18.1062C18.196 18.089 18.2109 18.0731 18.2242 18.0586C18.4318 17.8318 18.6772 17.7751 18.8282 17.7751C18.9792 17.7751 19.1304 17.7765 19.2624 17.7831C19.2786 17.7839 19.2956 17.7838 19.3131 17.7837C19.4451 17.783 19.6097 17.782 19.772 18.172C19.8345 18.322 19.9258 18.5445 20.0222 18.7792C20.2171 19.2537 20.4325 19.778 20.4704 19.8538C20.527 19.9672 20.5648 20.0995 20.4893 20.2507C20.4779 20.2734 20.4674 20.2948 20.4574 20.3152C20.4007 20.431 20.359 20.5162 20.2628 20.6285C20.2249 20.6727 20.1858 20.7204 20.1467 20.768C20.0688 20.8629 19.9908 20.9578 19.923 21.0254C19.8096 21.1383 19.6915 21.2609 19.8237 21.4877C19.9558 21.7144 20.4104 22.4562 21.0838 23.0568C21.8076 23.7025 22.4368 23.9754 22.7556 24.1137C22.8179 24.1407 22.8684 24.1626 22.9054 24.1811C23.1318 24.2945 23.2639 24.2755 23.3961 24.1244C23.5282 23.9732 23.9623 23.463 24.1133 23.2362C24.2643 23.0095 24.4153 23.0473 24.6229 23.1229C24.8306 23.1985 25.9442 23.7464 26.1708 23.8598C26.215 23.882 26.2563 23.9019 26.2946 23.9205Z" fill="#FDFDFD"/>
</svg>
