<svg width="34" height="34" viewBox="0 0 34 34" fill="none" xmlns="http://www.w3.org/2000/svg">
<circle cx="17" cy="17" r="17" fill="#4EBC5F"/>
<path fill-rule="evenodd" clip-rule="evenodd" d="M17.0295 23.9809H17.0266C15.8542 23.9805 14.7022 23.6864 13.6791 23.1283L9.96558 24.1024L10.9594 20.4724C10.3463 19.4101 10.0238 18.205 10.0243 16.9704C10.0258 13.1081 13.1683 9.96576 17.0294 9.96576C18.9034 9.96657 20.6622 10.6961 21.9848 12.0202C23.3073 13.3442 24.0353 15.1042 24.0345 16.9759C24.033 20.8374 20.8918 23.9793 17.0295 23.9809ZM13.851 21.8601L14.0637 21.9863C14.9576 22.5168 15.9823 22.7975 17.0271 22.7979H17.0294C20.2385 22.7979 22.8504 20.1859 22.8517 16.9755C22.8523 15.4197 22.2473 13.9569 21.148 12.8564C20.0487 11.7558 18.5869 11.1495 17.0317 11.1489C13.8202 11.1489 11.2082 13.7606 11.207 16.9708C11.2065 18.0709 11.5143 19.1423 12.0972 20.0693L12.2356 20.2896L11.6474 22.4382L13.851 21.8601ZM20.3186 18.484C20.4407 18.543 20.5232 18.5828 20.5584 18.6416C20.6021 18.7146 20.6021 19.065 20.4563 19.4739C20.3104 19.8828 19.6111 20.2559 19.2748 20.3062C18.9733 20.3513 18.5917 20.3701 18.1724 20.2368C17.9182 20.1562 17.5922 20.0485 17.1746 19.8681C15.5337 19.1596 14.4248 17.5692 14.2152 17.2686C14.2005 17.2476 14.1902 17.2328 14.1845 17.2252L14.1831 17.2233C14.0905 17.0997 13.4698 16.2716 13.4698 15.4145C13.4698 14.6083 13.8658 14.1857 14.0481 13.9912C14.0606 13.9778 14.0721 13.9656 14.0824 13.9544C14.2428 13.7791 14.4325 13.7353 14.5491 13.7353C14.6658 13.7353 14.7826 13.7364 14.8846 13.7415C14.8972 13.7421 14.9103 13.7421 14.9238 13.742C15.0258 13.7414 15.153 13.7406 15.2784 14.042C15.3267 14.1579 15.3973 14.3299 15.4718 14.5112C15.6224 14.8779 15.7888 15.283 15.8181 15.3416C15.8619 15.4292 15.891 15.5314 15.8327 15.6483C15.8239 15.6658 15.8158 15.6823 15.8081 15.6981C15.7643 15.7876 15.732 15.8534 15.6576 15.9402C15.6284 15.9744 15.5982 16.0112 15.568 16.048C15.5077 16.1213 15.4475 16.1947 15.3951 16.2469C15.3075 16.3342 15.2163 16.4289 15.3184 16.6041C15.4205 16.7793 15.7717 17.3525 16.2921 17.8166C16.8514 18.3156 17.3376 18.5264 17.584 18.6333C17.6321 18.6542 17.6711 18.6711 17.6997 18.6854C17.8746 18.773 17.9767 18.7584 18.0788 18.6416C18.181 18.5248 18.5164 18.1305 18.6331 17.9553C18.7497 17.7801 18.8665 17.8093 19.0269 17.8677C19.1873 17.9261 20.0479 18.3495 20.2229 18.4371C20.2571 18.4542 20.289 18.4697 20.3186 18.484Z" fill="#FDFDFD"/>
</svg>
